<?xml version="1.0" encoding="iso-8859-1"?>
<!-- Generator: Adobe Illustrator 19.0.0, SVG Export Plug-In . SVG Version: 6.00 Build 0)  -->
<svg version="1.1" id="Layer_1" xmlns="http://www.w3.org/2000/svg" xmlns:xlink="http://www.w3.org/1999/xlink" x="0px" y="0px"
	 viewBox="0 0 512 512" style="enable-background:new 0 0 512 512;" xml:space="preserve" width="100px" 
   height="100px">
<circle style="fill:#F78C20;" cx="77.955" cy="434.05" r="69.778"/>
<g>
	<circle style="fill:#FFA929;" cx="77.955" cy="434.05" r="43.611"/>
	<path style="fill:#FFA929;" d="M77.955,8.177v85.702c187.869,0,340.166,152.297,340.166,340.166h85.702
		C503.823,198.845,313.156,8.177,77.955,8.177z"/>
	<path style="fill:#FFA929;" d="M243.677,434.045h95.944c0-144.514-117.152-261.666-261.666-261.666v95.944
		C169.48,268.323,243.677,342.52,243.677,434.045z"/>
</g>
<g>
	<path style="fill:#F78C20;" d="M77.955,233.435v34.889c91.525,0,165.722,74.197,165.722,165.722h34.889
		C278.565,323.25,188.749,233.435,77.955,233.435z"/>
	<path style="fill:#F78C20;" d="M77.955,58.99v34.889c187.869,0,340.166,152.297,340.166,340.166h34.889
		C453.01,226.908,285.092,58.99,77.955,58.99z"/>
</g>
<path d="M77.955,356.091c-13.705,0-27.185,3.609-38.984,10.434c-3.909,2.261-5.244,7.264-2.983,11.173
	c2.261,3.909,7.266,5.243,11.173,2.983c9.313-5.388,19.962-8.237,30.795-8.237c33.966,0,61.601,27.634,61.601,61.601
	s-27.634,61.601-61.601,61.601s-61.602-27.633-61.602-61.599c0-10.832,2.848-21.481,8.236-30.794
	c2.261-3.91,0.926-8.912-2.984-11.173c-3.908-2.259-8.911-0.926-11.173,2.983C3.608,406.862,0,420.343,0,434.045
	C0,477.029,34.971,512,77.955,512s77.955-34.971,77.955-77.955S120.939,356.091,77.955,356.091z"/>
<path d="M496.446,318.487c-1.199-4.355-5.702-6.91-10.056-5.711c-4.353,1.2-6.911,5.701-5.711,10.056
	c9.214,33.44,14.214,68.064,14.888,103.038h-69.363c-2.06-89.983-38.071-174.277-101.933-238.139S176.116,87.856,86.132,85.796
	v-69.36c170.534,3.365,323.96,111.885,383.501,272.178c1.572,4.234,6.279,6.391,10.512,4.818c4.234-1.572,6.391-6.279,4.818-10.512
	c-30.532-82.199-84.665-152.536-156.546-203.407C254.917,27.495,168.309,0,77.955,0c-4.516,0-8.177,3.661-8.177,8.177v85.701
	c0,4.517,3.661,8.177,8.177,8.177c183.059,0,331.989,148.929,331.989,331.989c0,4.517,3.661,8.177,8.177,8.177h85.702
	c4.516,0,8.177-3.66,8.177-8.177C512,394.825,506.768,355.946,496.446,318.487z"/>
<path d="M77.955,164.202c-4.516,0-8.177,3.66-8.177,8.177v95.944c0,4.517,3.661,8.177,8.177,8.177
	c86.871,0,157.545,70.674,157.545,157.545c0,4.517,3.661,8.177,8.177,8.177h95.944c4.516,0,8.177-3.66,8.177-8.177
	c0-72.077-28.069-139.842-79.035-190.808C217.796,192.27,150.033,164.202,77.955,164.202z M251.664,425.868
	c-4.156-89.4-76.131-161.377-165.532-165.532v-79.65c133.284,4.249,240.932,111.898,245.182,245.182L251.664,425.868
	L251.664,425.868z"/>
<g>
</g>
<g>
</g>
<g>
</g>
<g>
</g>
<g>
</g>
<g>
</g>
<g>
</g>
<g>
</g>
<g>
</g>
<g>
</g>
<g>
</g>
<g>
</g>
<g>
</g>
<g>
</g>
<g>
</g>
</svg>
